<?xml version="1.0" standalone="no"?>
<!DOCTYPE svg PUBLIC "-//W3C//DTD SVG 20010904//EN"
 "http://www.w3.org/TR/2001/REC-SVG-20010904/DTD/svg10.dtd">
<svg version="1.0" xmlns="http://www.w3.org/2000/svg"
 width="840.000000pt" height="848.000000pt" viewBox="0 0 840.000000 848.000000"
 preserveAspectRatio="xMidYMid meet">

<g transform="translate(0.000000,848.000000) scale(0.100000,-0.100000)"
fill="#000000" stroke="none">
<path d="M3344 6088 c-569 -570 -875 -884 -923 -946 -252 -331 -404 -711 -452
-1132 -16 -146 -6 -473 20 -610 86 -465 278 -846 593 -1175 356 -373 792 -593
1343 -676 122 -19 437 -16 580 5 512 74 964 305 1313 671 315 330 507 709 593
1175 26 137 36 464 20 610 -48 421 -200 800 -453 1133 -66 87 -176 207 -189
207 -4 0 -93 -86 -198 -191 l-190 -191 70 -81 c186 -215 326 -496 383 -767 76
-360 22 -768 -144 -1100 -233 -464 -659 -791 -1175 -900 -129 -28 -389 -37
-535 -20 -376 43 -723 213 -995 485 -238 238 -390 523 -462 864 -24 112 -27
148 -27 326 0 178 3 214 27 326 57 272 179 535 340 734 22 28 328 338 679 690
l638 640 -2 388 -3 387 -851 -852z"/>
<path d="M4920 6041 c-129 -42 -210 -146 -212 -269 -1 -84 25 -153 78 -208
119 -121 305 -118 419 8 56 63 79 130 73 213 -12 147 -122 254 -268 261 -36 2
-76 0 -90 -5z"/>
</g>
</svg>
